<svg xmlns="http://www.w3.org/2000/svg" width="18" height="18" viewBox="0 0 18 18" fill="none">
  <path d="M15.151 1.28571C15.9935 1.28571 16.6957 1.98771 16.6957 2.84785V12.8706L13.379 9.55349L11.7992 11.133L7.37575 6.70981L1.28565 12.7993V2.84785C1.28565 1.98771 1.98779 1.28571 2.84791 1.28571H15.151ZM11.7992 12.8176L13.379 11.2555L16.7142 14.5726V15.1521C16.7142 16.0123 16.0121 16.7143 15.151 16.7143H2.84791C2.43157 16.711 2.03349 16.5448 1.74073 16.252C1.44797 15.9593 1.28435 15.5638 1.28565 15.1521C1.28565 14.7307 1.44363 14.345 1.74204 14.0461L7.37575 8.41178L11.7992 12.8176ZM13.2211 6.25274C13.8881 6.25274 14.4313 5.70888 14.4313 5.0416C14.4313 4.37528 13.8881 3.83046 13.2211 3.83046C12.554 3.83046 12.0099 4.37528 12.0099 5.0416C12.0099 5.70888 12.554 6.25274 13.2211 6.25274Z" fill="#97B7EF"/>
</svg>