<svg xmlns="http://www.w3.org/2000/svg" width="14" height="14" viewBox="0 0 14 14" fill="none">
  <path d="M5.72719 4.45413C6.30796 4.45413 6.85559 4.57882 7.37323 4.82662C7.76146 5.00971 8.11181 5.25909 8.42745 5.57318C8.74151 5.88727 8.99086 6.23924 9.17393 6.62594C8.92457 6.87532 8.62472 6.99843 8.27437 6.99843C8.15127 6.99843 8.02817 6.97949 7.90192 6.94319C7.69044 6.59911 7.40006 6.31027 7.05602 6.09719C6.64885 5.84939 6.20538 5.7247 5.72877 5.7247C5.39735 5.7247 5.07541 5.78784 4.76451 5.9141C4.45361 6.04037 4.17427 6.22662 3.92965 6.47126L2.02006 8.38107C1.77545 8.62571 1.58922 8.90508 1.46297 9.21602C1.33829 9.52222 1.27359 9.84893 1.27359 10.1804C1.27359 10.5118 1.33671 10.8338 1.46297 11.1448C1.58922 11.4573 1.77387 11.7351 2.02006 11.9797C2.26626 12.2259 2.54402 12.4106 2.85492 12.5369C3.16108 12.6616 3.48934 12.7263 3.82076 12.7263C4.15218 12.7263 4.47412 12.6631 4.78502 12.5369C5.09592 12.4106 5.37526 12.2244 5.61988 11.9797L6.95659 10.6428C7.38112 10.7581 7.81985 10.8165 8.27437 10.8165C8.34696 10.8165 8.44954 10.8133 8.58211 10.807C8.53161 10.8622 8.48111 10.9175 8.42903 10.9711L6.51944 12.8809C6.15172 13.2487 5.73508 13.5265 5.26795 13.7159C4.8087 13.9037 4.31631 14 3.81918 14C3.32206 14 2.83756 13.9053 2.37042 13.7143C1.9017 13.5233 1.48506 13.2455 1.11893 12.8809C0.751211 12.5132 0.473452 12.0965 0.284071 11.6309C0.0962686 11.1716 0 10.6791 0 10.182C0 9.68479 0.0962686 9.19234 0.284071 8.73304C0.473452 8.26743 0.751211 7.85074 1.11893 7.48299L3.02852 5.57318C3.06481 5.53688 3.12005 5.48637 3.19265 5.4185C3.54774 5.10283 3.94386 4.8645 4.38101 4.70035C4.81817 4.53778 5.26637 4.45571 5.72719 4.45413ZM10.1824 1.90946e-05C10.6795 1.90946e-05 11.1719 0.0962986 11.6311 0.284122C12.0967 0.471946 12.5133 0.751315 12.8826 1.11907C13.2503 1.48683 13.5297 1.90351 13.7175 2.36913C13.9053 2.83 14.0016 3.32087 14 3.81805C14 4.31523 13.9037 4.79821 13.7143 5.26698C13.5234 5.73575 13.2456 6.15243 12.8811 6.51703L10.9715 8.42684C10.9352 8.46472 10.8799 8.51523 10.8073 8.58152C10.4538 8.89719 10.0577 9.13552 9.61897 9.29967C9.18813 9.46224 8.73204 9.54589 8.27121 9.54589C7.69202 9.54589 7.14282 9.4212 6.62517 9.1734C6.23694 8.99031 5.88659 8.74093 5.57095 8.42684C5.2569 8.11275 5.00755 7.76078 4.82448 7.37408C5.07225 7.1247 5.3721 7.00159 5.72404 7.00159C5.84713 7.00159 5.97181 7.02053 6.09649 7.05683C6.30796 7.40091 6.59677 7.68975 6.94081 7.90283C7.34956 8.15063 7.79144 8.27532 8.26805 8.27532C8.59947 8.27532 8.92142 8.21218 9.23232 8.08592C9.5448 7.95965 9.82255 7.7734 10.0672 7.52876L11.9768 5.61895C12.223 5.37431 12.4076 5.09494 12.5339 4.784C12.6585 4.4778 12.7232 4.15108 12.7232 3.81963C12.7232 3.48818 12.6601 3.16619 12.5339 2.85526C12.4076 2.54274 12.2214 2.26495 11.9768 2.02031C11.7306 1.77409 11.4528 1.58942 11.1419 1.46315C10.8357 1.33846 10.5075 1.27375 10.1776 1.27375C9.84623 1.27375 9.52428 1.33688 9.21338 1.46315C8.9009 1.58942 8.62314 1.77566 8.37853 2.02031L7.04023 3.35717C6.61571 3.24195 6.17697 3.18355 5.72246 3.18355C5.64986 3.18355 5.54728 3.18671 5.41471 3.19302C5.46522 3.13778 5.51572 3.08254 5.56938 3.02888L7.47897 1.11907C7.84352 0.754471 8.26016 0.476681 8.72888 0.285701C9.20075 0.0947202 9.68367 -0.00155926 10.1824 1.90946e-05Z" fill="#97B7EF"/>
</svg>