<svg width="18" height="18" viewBox="0 0 18 18" fill="none" xmlns="http://www.w3.org/2000/svg">
<path d="M12.1887 0.068924C9.64822 0.068924 7.58851 0.796758 7.58851 1.69476V4.429C7.58851 4.47998 7.59698 4.53046 7.61098 4.58027C7.83501 5.37233 9.79841 5.99181 12.1887 5.99181C14.579 5.99181 16.5424 5.37233 16.7665 4.58027C16.7805 4.53046 16.7889 4.47998 16.7889 4.429V1.69476C16.7889 0.796758 14.7293 0.068924 12.1887 0.068924ZM15.9683 1.91032C15.7743 2.05128 15.4865 2.18688 15.1358 2.30256C14.3416 2.56462 13.2949 2.70898 12.1887 2.70898C11.0825 2.70898 10.0359 2.56462 9.24169 2.30256C8.891 2.18688 8.60314 2.05128 8.40916 1.91032C8.25964 1.80177 8.20916 1.72033 8.2008 1.69476C8.20916 1.66926 8.25964 1.58785 8.40916 1.47919C8.60314 1.33831 8.891 1.20271 9.24169 1.08696C10.0359 0.824874 11.0825 0.680508 12.1887 0.680508C13.2949 0.680508 14.3416 0.824874 15.1359 1.08696C15.4865 1.20271 15.7743 1.33831 15.9683 1.47919C16.1178 1.58785 16.1683 1.66926 16.1767 1.69476C16.1683 1.72024 16.1178 1.80177 15.9683 1.91032ZM14.2859 6.131C13.6564 6.2452 12.9449 6.31107 12.1888 6.31107C11.4325 6.31107 10.721 6.2452 10.0917 6.131C8.60665 5.86144 7.58851 5.41746 7.58851 4.7867V5.8596C7.03508 5.77622 6.42591 5.73002 5.78631 5.73002C3.24574 5.73002 1.18604 6.45786 1.18604 7.35586V10.0902C1.18604 10.1412 1.1945 10.1916 1.2085 10.2414C1.43263 11.0334 3.39594 11.653 5.78631 11.653C6.42601 11.653 7.03518 11.6086 7.58851 11.5284C7.67645 11.5156 7.76294 11.502 7.84796 11.4874C7.98152 11.4647 8.11139 11.4398 8.23708 11.4127C9.40959 11.1614 10.2244 10.7349 10.364 10.2414C10.378 10.1916 10.3865 10.1412 10.3865 10.0902V10.4564C10.3865 10.9655 9.72283 11.353 8.68564 11.6253C8.53368 11.6653 8.37365 11.7026 8.20652 11.7376C8.10148 11.7596 7.99377 11.7806 7.88337 11.8007C7.78705 11.8181 7.6886 11.8343 7.58851 11.8495C7.03488 11.9333 6.42678 11.9806 5.78631 11.9806C5.03004 11.9806 4.31854 11.9149 3.68925 11.8007C2.20417 11.531 1.18604 11.087 1.18604 10.4563V13.1906C1.18604 13.2416 1.1945 13.292 1.2085 13.3418C1.43263 14.1338 3.39603 14.7534 5.78631 14.7534C6.69208 14.7534 7.53637 14.6644 8.24816 14.5108C9.41465 14.259 10.2249 13.8337 10.3641 13.3418C10.378 13.292 10.3865 13.2416 10.3865 13.1906V13.5567C10.3865 14.0639 9.72829 14.4502 8.69857 14.7223C8.44749 14.7886 8.17442 14.8483 7.88337 14.9011C7.25396 15.0153 6.54246 15.081 5.78631 15.081C5.03014 15.081 4.31864 15.0153 3.68925 14.9011C2.20417 14.6314 1.18613 14.1874 1.18613 13.5567V16.291C1.18613 16.342 1.1946 16.3924 1.2086 16.4422C1.43263 17.2342 3.39603 17.8538 5.78631 17.8538C8.17666 17.8538 10.14 17.2342 10.3641 16.4422C10.3781 16.3924 10.3866 16.342 10.3866 16.291V15.1429C10.94 15.2232 11.5491 15.2675 12.1889 15.2675C14.5791 15.2675 16.5425 14.648 16.7666 13.856C16.7806 13.8062 16.789 13.7557 16.789 13.7047V10.9705C16.789 11.6013 15.771 12.0452 14.2859 12.3149C13.6565 12.4291 12.945 12.4949 12.1889 12.4949C11.5484 12.4949 10.9402 12.4475 10.3866 12.3637V12.0511C10.94 12.1312 11.5491 12.1757 12.1889 12.1757C14.5791 12.1757 16.5425 11.5562 16.7666 10.7641C16.7806 10.7143 16.789 10.6639 16.789 10.6129V7.87853C16.789 8.50929 15.771 8.9534 14.2859 9.22296C13.6565 9.33717 12.945 9.40291 12.1889 9.40291C11.5484 9.40291 10.9402 9.35554 10.3866 9.27179V8.95913C10.94 9.03939 11.5492 9.08375 12.1889 9.08375C14.5791 9.08375 16.5425 8.46427 16.7667 7.67221C16.7807 7.6224 16.7891 7.57192 16.7891 7.52094V4.7867C16.7889 5.41746 15.7709 5.86144 14.2859 6.131ZM9.56571 7.57142C9.37174 7.71238 9.0839 7.848 8.73331 7.96365C8.50509 8.03896 8.25586 8.10454 7.99046 8.15977C7.89368 8.17992 7.79464 8.1987 7.69376 8.216C7.65894 8.22203 7.62383 8.22788 7.58851 8.23351C7.0312 8.32281 6.41852 8.37011 5.78621 8.37011C4.68004 8.37011 3.63339 8.22574 2.83911 7.96365C2.48852 7.848 2.20066 7.7123 2.00669 7.57142C1.85716 7.46287 1.80668 7.38136 1.79832 7.35586C1.80668 7.33028 1.85716 7.24885 2.00669 7.14029C2.20066 6.99934 2.48852 6.86371 2.83911 6.74806C3.63339 6.48597 4.68004 6.34163 5.78621 6.34163C6.41852 6.34163 7.0312 6.3889 7.58851 6.4782C8.00632 6.54512 8.39303 6.63579 8.73331 6.74806C9.0839 6.86371 9.37174 6.99934 9.56571 7.14019C9.71533 7.24885 9.76574 7.33028 9.77411 7.35586C9.76574 7.38143 9.71533 7.46287 9.56571 7.57142Z" fill="#97B7EF"/>
</svg>
