<svg width="16" height="11" viewBox="0 0 16 11" fill="none" xmlns="http://www.w3.org/2000/svg">
<path d="M5.29149 11C5.02124 10.9914 4.76477 10.8751 4.57601 10.6756L0.304616 6.29638C0.109195 6.08752 0 5.80871 0 5.51858C0 5.22846 0.109195 4.94965 0.304616 4.74079C0.403036 4.6387 0.520081 4.55768 0.649012 4.50239C0.777944 4.4471 0.916216 4.41863 1.05587 4.41863C1.19552 4.41863 1.33379 4.4471 1.46272 4.50239C1.59165 4.55768 1.7087 4.6387 1.80712 4.74079L5.29149 8.35328L14.192 0.324696C14.2893 0.221924 14.4056 0.140252 14.534 0.0844897C14.6624 0.0287269 14.8003 0 14.9397 0C15.079 0 15.217 0.0287269 15.3454 0.0844897C15.4738 0.140252 15.59 0.221924 15.6874 0.324696C15.7864 0.426109 15.8651 0.546714 15.9187 0.679569C15.9724 0.812423 16 0.954902 16 1.0988C16 1.2427 15.9724 1.38518 15.9187 1.51803C15.8651 1.65089 15.7864 1.77149 15.6874 1.87291L6.04275 10.6756C5.84387 10.8819 5.57371 10.9986 5.29149 11Z" fill="white"/>
</svg>
