<svg width="10" height="10" viewBox="0 0 10 10" fill="none" xmlns="http://www.w3.org/2000/svg">
    <path fill-rule="evenodd" clip-rule="evenodd"
        d="M8.17073 0.7317H2.31712C2.2201 0.7317 2.12704 0.693155 2.05843 0.624545C1.98982 0.555935 1.95127 0.46288 1.95127 0.36585C1.95127 0.268821 1.98982 0.175765 2.05843 0.107155C2.12704 0.0385449 2.2201 0 2.31712 0H8.17073C8.46181 0 8.74098 0.115634 8.94681 0.321465C9.15264 0.527296 9.26828 0.806462 9.26828 1.09755V7.68285C9.26828 7.77988 9.22973 7.87294 9.16112 7.94155C9.09251 8.01016 8.99946 8.0487 8.90243 8.0487C8.8054 8.0487 8.71234 8.01016 8.64373 7.94155C8.57512 7.87294 8.53658 7.77988 8.53658 7.68285V1.09755C8.53658 1.00052 8.49803 0.907465 8.42942 0.838855C8.36081 0.770245 8.26776 0.7317 8.17073 0.7317ZM6.70725 1.46361C6.99834 1.46361 7.27751 1.57924 7.48334 1.78507C7.68917 1.9909 7.8048 2.27007 7.8048 2.56116V8.90256C7.8048 9.19365 7.68917 9.47281 7.48334 9.67865C7.27751 9.88448 6.99834 10.0001 6.70725 10.0001H1.09755C0.806462 10.0001 0.527296 9.88448 0.321465 9.67865C0.115634 9.47281 0 9.19365 0 8.90256V2.56116C0 2.27007 0.115634 1.9909 0.321465 1.78507C0.527296 1.57924 0.806462 1.46361 1.09755 1.46361H6.70725ZM6.70725 2.19531H1.09755C1.04951 2.19531 1.00193 2.20477 0.957545 2.22316C0.913158 2.24154 0.872827 2.26849 0.838855 2.30246C0.804883 2.33644 0.777935 2.37677 0.759549 2.42115C0.741163 2.46554 0.7317 2.51311 0.7317 2.56116V8.90256C0.7317 8.99959 0.770245 9.09265 0.838855 9.16126C0.907465 9.22987 1.00052 9.26841 1.09755 9.26841H6.70725C6.80428 9.26841 6.89734 9.22987 6.96595 9.16126C7.03456 9.09265 7.0731 8.99959 7.0731 8.90256V2.56116C7.0731 2.46413 7.03456 2.37107 6.96595 2.30246C6.89734 2.23385 6.80428 2.19531 6.70725 2.19531ZM2.19506 3.29342H5.60966C5.85356 3.29342 5.97551 3.41537 5.97551 3.65928C5.97551 3.90318 5.85356 4.02513 5.60966 4.02513H2.19506C1.95116 4.02513 1.82921 3.90318 1.82921 3.65928C1.82921 3.41537 1.95116 3.29342 2.19506 3.29342ZM5.60966 4.99873H2.19506C1.95116 4.99873 1.82921 5.12068 1.82921 5.36458C1.82921 5.60848 1.95116 5.73043 2.19506 5.73043H5.60966C5.85356 5.73043 5.97551 5.60848 5.97551 5.36458C5.97551 5.12068 5.85356 4.99873 5.60966 4.99873ZM2.19506 6.70648H4.14626C4.39016 6.70648 4.51211 6.82843 4.51211 7.07233C4.51211 7.31623 4.39016 7.43818 4.14626 7.43818H2.19506C1.95116 7.43818 1.82921 7.31623 1.82921 7.07233C1.82921 6.82843 1.95116 6.70648 2.19506 6.70648Z"
        fill="#97B7EF" />
</svg>