<svg width="24" height="24" viewBox="0 0 24 24" fill="none" xmlns="http://www.w3.org/2000/svg">
    <path
        d="M24 12C24 18.6274 18.6274 24 12 24C5.37258 24 0 18.6274 0 12C0 5.37258 5.37258 0 12 0C18.6274 0 24 5.37258 24 12Z"
        fill="black" fill-opacity="0.4" />
    <path d="M11.9999 3.14978V9.74578L17.9999 12.2363L11.9999 3.14978Z" fill="#E0E0E0" />
    <path d="M11.9999 3.14978L6 12.2363L11.9999 9.74578V3.14978Z" fill="white" />
    <path d="M11.9999 16.5117V20.9997L17.9999 13.2817L11.9999 16.5117Z" fill="#E0E0E0" />
    <path d="M11.9999 20.9997L12 16.5203L6 13.2733L11.9999 20.9997Z" fill="white" />
    <path d="M11.9999 15.4746L17.9999 12.2363L11.9999 9.74578V15.4746Z" fill="#ABABAB" />
    <path d="M6 12.2363L11.9999 15.4746V9.74578L6 12.2363Z" fill="#E0E0E0" />
</svg>