<svg width="17" height="16" viewBox="0 0 17 16" fill="none" xmlns="http://www.w3.org/2000/svg">
<path id="Vector" d="M11.1636 14.3101V6.98863H11.668C11.9396 6.98863 12.1724 7.22112 12.1724 7.48511V12.144C12.1724 13.3379 13.1332 14.3101 14.3364 14.3101C15.5296 14.3101 16.5 13.3379 16.5 12.144V3.18532C16.4988 2.95911 16.4532 2.73574 16.3663 2.52995C16.2793 2.32416 16.153 2.14062 15.9956 1.99142L14.2296 0.237551C13.9192 -0.0791837 13.3952 -0.0791837 13.0748 0.237551C12.7644 0.554705 12.7644 1.07234 13.0748 1.39988L14.22 2.55143L13.3756 3.43894C13.3113 3.50494 13.26 3.58439 13.225 3.67246C13.19 3.76052 13.172 3.85536 13.172 3.9512C13.172 4.04703 13.19 4.14187 13.225 4.22993C13.26 4.318 13.3113 4.39745 13.3756 4.46345C13.5116 4.61123 13.686 4.67474 13.8804 4.67474H14.8312V12.1651C14.8312 12.44 14.608 12.6616 14.3264 12.6616C14.0548 12.6616 13.822 12.4292 13.822 12.1652V7.50627C13.822 6.31239 12.8616 5.34061 11.6584 5.34061H11.1636V1.35753C11.1636 0.617797 10.5716 0.0370657 9.8244 0.0370657H2.8384C2.11079 0.0370657 1.49919 0.628587 1.49919 1.35753V14.3308H1.33439C0.878386 14.3308 0.5 14.7111 0.5 15.1656C0.5 15.6198 0.878401 16 1.33439 16H11.3284C11.7844 16 12.1628 15.6198 12.1628 15.1656C12.1628 14.7111 11.7844 14.3308 11.3284 14.3308H11.1636V14.3101ZM3.896 1.67428H8.7572C9.16479 1.67428 9.4848 1.99144 9.4848 2.40323V5.93216C9.4848 6.34396 9.16479 6.66111 8.75718 6.66111H3.89598C3.48839 6.66111 3.1684 6.34396 3.1684 5.93216V2.40321C3.1584 1.99142 3.49799 1.67428 3.896 1.67428Z" fill="#97B7EF"/>
</svg>
