<svg width="18" height="18" viewBox="0 0 18 18" fill="none" xmlns="http://www.w3.org/2000/svg">
    <path fill-rule="evenodd" clip-rule="evenodd"
        d="M1.85592 6.03959C1.85592 7.14956 2.29668 8.21406 3.08125 8.99893L4.5592 10.4728C4.71974 10.6494 4.80623 10.881 4.80079 11.1196C4.79534 11.3583 4.69836 11.5857 4.52994 11.7548C4.36151 11.9238 4.13454 12.0217 3.89601 12.028C3.65748 12.0342 3.42567 11.9485 3.24857 11.7886L1.76597 10.3147C1.19409 9.74456 0.743519 9.06448 0.441397 8.31547C-0.147112 6.85533 -0.147112 5.22385 0.441397 3.76371C0.745246 3.01564 1.19585 2.33606 1.7666 1.76509C2.33735 1.19413 3.01667 0.743357 3.76446 0.439394C5.2246 -0.146444 6.85434 -0.146444 8.31449 0.439394C9.06322 0.74163 9.74304 1.19238 10.313 1.76447L11.7863 3.24763C11.9386 3.42552 12.0181 3.65434 12.0091 3.88836C12.0001 4.12239 11.9031 4.34439 11.7375 4.51C11.572 4.6756 11.3501 4.77262 11.1161 4.78166C10.8822 4.7907 10.6535 4.7111 10.4756 4.55876L8.99769 3.08025C8.21312 2.29538 7.14902 1.85445 6.03947 1.85445C4.92993 1.85445 3.86582 2.29538 3.08125 3.08025C2.29668 3.86512 1.85592 4.92962 1.85592 6.03959ZM16.2294 7.68315C16.8013 8.2533 17.2519 8.93338 17.554 9.68239H17.5586C18.1471 11.1425 18.1471 12.774 17.5586 14.2341C17.2548 14.9822 16.8042 15.6618 16.2334 16.2328C15.6627 16.8037 14.9834 17.2545 14.2356 17.5585C12.776 18.1472 11.1451 18.1472 9.68554 17.5585C8.93681 17.2562 8.257 16.8055 7.68706 16.2334L6.20911 14.7502C6.11181 14.6669 6.03278 14.5643 5.97698 14.4489C5.92119 14.3336 5.88984 14.2079 5.88489 14.0798C5.87995 13.9518 5.90152 13.8241 5.94825 13.7047C5.99498 13.5854 6.06587 13.477 6.15645 13.3864C6.24704 13.2958 6.35537 13.2249 6.47466 13.1781C6.59394 13.1314 6.72159 13.1098 6.8496 13.1148C6.97762 13.1197 7.10323 13.1511 7.21855 13.2069C7.33387 13.2627 7.43641 13.3418 7.51974 13.4391L8.99769 14.9176C9.38617 15.3062 9.84736 15.6145 10.3549 15.8248C10.8625 16.0352 11.4065 16.1434 11.9559 16.1434C12.5053 16.1434 13.0493 16.0352 13.5569 15.8248C14.0645 15.6145 14.5257 15.3062 14.9141 14.9176C15.3026 14.529 15.6108 14.0676 15.821 13.5599C16.0313 13.0521 16.1395 12.5079 16.1395 11.9583C16.1395 11.4087 16.0313 10.8645 15.821 10.3567C15.6108 9.84892 15.3026 9.38756 14.9141 8.99893L13.4362 7.52507C13.3427 7.44065 13.2674 7.33812 13.2147 7.2237C13.1621 7.10927 13.1332 6.98534 13.1299 6.85942C13.1266 6.7335 13.1489 6.60822 13.1954 6.49117C13.242 6.37413 13.3118 6.26777 13.4007 6.17854C13.4896 6.08931 13.5956 6.01908 13.7125 5.97211C13.8293 5.92513 13.9545 5.90239 14.0803 5.90526C14.2062 5.90814 14.3302 5.93657 14.4448 5.98883C14.5593 6.0411 14.6621 6.1161 14.7468 6.20929L16.2294 7.68315ZM12.58 12.8348C12.4272 12.9384 12.2476 12.9958 12.0628 13C11.8178 12.994 11.5845 12.8948 11.4106 12.7226L5.28112 6.63392C5.192 6.54504 5.1213 6.43953 5.07307 6.32341C5.02484 6.20729 5.00002 6.08283 5.00002 5.95714C5.00002 5.83144 5.02484 5.70698 5.07307 5.59086C5.1213 5.47474 5.192 5.36923 5.28112 5.28035C5.37024 5.19147 5.47605 5.12097 5.59249 5.07287C5.70893 5.02477 5.83373 5.00002 5.95977 5.00002C6.08581 5.00002 6.21061 5.02477 6.32705 5.07287C6.4435 5.12097 6.5493 5.19147 6.63842 5.28035L12.7439 11.3929C12.8696 11.528 12.9535 11.6964 12.9855 11.8779C13.0175 12.0594 12.9963 12.2463 12.9243 12.4161C12.8524 12.5858 12.7328 12.7312 12.58 12.8348Z"
        fill="#97B7EF" />
</svg>