<svg width="11" height="14" viewBox="0 0 11 14" fill="none" xmlns="http://www.w3.org/2000/svg">
<path fill-rule="evenodd" clip-rule="evenodd" d="M0 1.09091C0 0.488417 0.364805 0 0.814815 0H10.1852C10.6352 0 11 0.488417 11 1.09091C11 1.6934 10.6352 2.18182 10.1852 2.18182H0.814815C0.364805 2.18182 0 1.6934 0 1.09091Z" fill="white"/>
<path fill-rule="evenodd" clip-rule="evenodd" d="M0 6.54547C0 5.94298 0.364805 5.45456 0.814815 5.45456H10.1852C10.6352 5.45456 11 5.94298 11 6.54547C11 7.14796 10.6352 7.63638 10.1852 7.63638H0.814815C0.364805 7.63638 0 7.14796 0 6.54547Z" fill="white"/>
<path fill-rule="evenodd" clip-rule="evenodd" d="M0 12C0 11.3975 0.364805 10.9091 0.814815 10.9091H10.1852C10.6352 10.9091 11 11.3975 11 12C11 12.6025 10.6352 13.0909 10.1852 13.0909H0.814815C0.364805 13.0909 0 12.6025 0 12Z" fill="white"/>
</svg>
