<svg width="14" height="14" viewBox="0 0 14 14" fill="none" xmlns="http://www.w3.org/2000/svg">
<path fill-rule="evenodd" clip-rule="evenodd" d="M9.74585 10.6709C9.63645 10.5615 9.48808 10.5001 9.33336 10.5001C9.17865 10.5001 9.03028 10.5615 8.92088 10.6709C8.81148 10.7803 8.75002 10.9287 8.75002 11.0834V13.4168C8.75005 13.5714 8.81152 13.7198 8.92091 13.8292C9.03031 13.9386 9.17867 14 9.33336 14C9.48806 14 9.63642 13.9386 9.74582 13.8292C9.85521 13.7198 9.91668 13.5714 9.9167 13.4168V11.0834C9.9167 10.9287 9.85524 10.7803 9.74585 10.6709ZM13.3876 12.5627L11.7373 10.9125C11.6835 10.8568 11.6191 10.8123 11.548 10.7818C11.4768 10.7512 11.4002 10.7351 11.3228 10.7344C11.2453 10.7338 11.1685 10.7485 11.0968 10.7778C11.0251 10.8072 10.96 10.8505 10.9052 10.9053C10.8505 10.96 10.8071 11.0252 10.7778 11.0968C10.7485 11.1685 10.7337 11.2454 10.7344 11.3228C10.7351 11.4003 10.7512 11.4768 10.7817 11.548C10.8123 11.6191 10.8568 11.6835 10.9125 11.7373L12.5627 13.3876C12.6728 13.4938 12.8201 13.5526 12.9731 13.5513C13.126 13.55 13.2723 13.4886 13.3805 13.3805C13.4886 13.2723 13.55 13.126 13.5513 12.9731C13.5526 12.8201 13.4938 12.6728 13.3876 12.5627ZM13.8292 8.92094C13.7198 8.81155 13.5714 8.75008 13.4167 8.75006H11.0834C10.9287 8.75008 10.7803 8.81155 10.671 8.92094C10.5616 9.03034 10.5001 9.1787 10.5001 9.33339C10.5001 9.48809 10.5616 9.63645 10.671 9.74584C10.7803 9.85524 10.9287 9.91671 11.0834 9.91673H13.4167C13.5714 9.91671 13.7198 9.85524 13.8292 9.74584C13.9386 9.63645 14 9.48809 14 9.33339C14 9.1787 13.9386 9.03034 13.8292 8.92094ZM3.32904 4.25425C3.21966 4.14485 3.07131 4.08338 2.91661 4.08336H0.583252C0.428555 4.08338 0.280203 4.14485 0.170825 4.25425C0.0614467 4.36364 0 4.512 0 4.6667C0 4.82139 0.0614467 4.96975 0.170825 5.07915C0.280203 5.18854 0.428555 5.25001 0.583252 5.25003H2.91661C3.07131 5.25001 3.21966 5.18854 3.32904 5.07915C3.43842 4.96975 3.49987 4.82139 3.49987 4.6667C3.49987 4.512 3.43842 4.36364 3.32904 4.25425ZM3.47079 2.64602L1.82052 0.995756C1.76671 0.940042 1.70234 0.895018 1.63117 0.864446C1.56 0.833874 1.48345 0.817782 1.406 0.817109C1.32854 0.816436 1.25173 0.831195 1.18004 0.860526C1.10835 0.889857 1.04321 0.933171 0.988443 0.987942C0.933671 1.04271 0.890356 1.10784 0.861025 1.17953C0.831695 1.25122 0.816935 1.32804 0.817608 1.40549C0.818281 1.48295 0.834373 1.55949 0.864946 1.63066C0.895518 1.70183 0.939958 1.7662 0.995673 1.82001L2.64594 3.47086C2.75596 3.57712 2.90332 3.63591 3.05627 3.63458C3.20922 3.63325 3.35553 3.5719 3.46368 3.46375C3.57184 3.35559 3.63319 3.20929 3.63452 3.05634C3.63585 2.90339 3.57705 2.75604 3.47079 2.64602ZM5.07912 0.170855C4.96972 0.0614586 4.82135 0 4.66664 0C4.51193 0 4.36355 0.0614586 4.25415 0.170855C4.14476 0.280252 4.0833 0.428627 4.0833 0.583337V2.91669C4.0833 3.0714 4.14476 3.21977 4.25415 3.32917C4.36355 3.43856 4.51193 3.50002 4.66664 3.50002C4.82135 3.50002 4.96972 3.43856 5.07912 3.32917C5.18852 3.21977 5.24998 3.0714 5.24998 2.91669V0.583337C5.24998 0.428627 5.18852 0.280252 5.07912 0.170855ZM2.83544 11.1646C3.39241 11.7215 4.08861 12 4.78481 12C5.48101 12 6.24684 11.7215 6.73418 11.1646L8.68354 9.21519C9.24051 8.72785 9.51899 8.03164 9.51899 7.26582C9.51899 6.5 9.24051 5.8038 8.75316 5.31645L8.46309 5.02638C8.20034 4.76363 7.77434 4.76363 7.5116 5.02638C7.23997 5.29801 7.25052 5.74155 7.53476 5.99996L7.71486 6.16368C7.75718 6.20215 7.79629 6.24418 7.82847 6.29146C8.00926 6.55715 8.12658 6.87667 8.12658 7.1962C8.12658 7.5443 7.98734 7.8924 7.70886 8.17088L5.75949 10.1203C5.20253 10.6772 4.36709 10.6772 3.81013 10.1203C3.25316 9.56329 3.25316 8.72785 3.81013 8.17088L4.78481 7.1962C5.05396 6.92705 5.05396 6.49067 4.78481 6.22152C4.51566 5.95237 4.07928 5.95237 3.81013 6.22152L2.83544 7.1962C1.72152 8.31013 1.72152 10.0506 2.83544 11.1646ZM6.51482 7.99679C6.79352 8.25015 7.22207 8.23995 7.4884 7.97362C7.76396 7.69806 7.76396 7.2513 7.4884 6.97574L7.22152 6.70886C6.66456 6.1519 6.66456 5.31645 7.22152 4.75949L9.24051 2.87975C9.72785 2.32278 10.6329 2.32278 11.1899 2.87975C11.7468 3.43671 11.7468 4.27215 11.1899 4.82911L10.2152 5.8038C9.94604 6.07295 9.94604 6.50933 10.2152 6.77848C10.4843 7.04763 10.9207 7.04763 11.1899 6.77848L12.1646 5.8038C13.2785 4.68987 13.2785 2.94937 12.1646 1.83544C11.0506 0.721517 9.31013 0.721517 8.1962 1.83544L6.24684 3.78481C5.13291 4.89873 5.13291 6.63924 6.24684 7.75316L6.51482 7.99679Z" fill="#97B7EF"/>
</svg>
