<svg width="20" height="20" viewBox="0 0 20 20" fill="none" xmlns="http://www.w3.org/2000/svg">
    <circle cx="10" cy="10" r="10" fill="#97B7EF" />
    <path
        d="M7.33563 15.3327C6.2302 15.3327 5.33333 14.4368 5.33333 13.3327V6.66602C5.33333 5.56185 6.2302 4.66602 7.33563 4.66602H11.3329C11.7011 4.66602 12.0004 4.96497 12.0004 5.33268C12.0004 5.70039 11.7011 5.99935 11.3329 5.99935H7.33563C6.9675 5.99935 6.6682 6.29831 6.6682 6.66602V13.3327C6.6682 13.7004 6.9675 13.9993 7.33563 13.9993H11.3329C11.7011 13.9993 12.0004 14.2983 11.9993 14.6671C11.9993 15.0348 11.7011 15.3327 11.3329 15.3327H7.33563ZM13.0172 12.316C12.7565 12.0556 12.7565 11.6337 13.0172 11.3733L13.7242 10.666H9.33377C8.96563 10.666 8.66633 10.3671 8.66633 9.99935C8.66633 9.63164 8.96563 9.33268 9.33377 9.33268H13.7242L12.8628 8.47018C12.6157 8.19727 12.6365 7.77539 12.9098 7.52852C13.1642 7.29831 13.5511 7.29831 13.8056 7.52747L15.8079 9.52747C15.9966 9.72018 16.0519 10.0056 15.9487 10.2546C15.9153 10.3348 15.8663 10.4077 15.8047 10.4702L13.9589 12.316C13.6982 12.5754 13.2768 12.5754 13.0161 12.316H13.0172Z"
        fill="white" />
</svg>