<svg width="30" height="30" viewBox="0 0 30 30" fill="none" xmlns="http://www.w3.org/2000/svg">
<g id="Frame">
<path id="Vector" d="M2.61666 11.5667L8.03333 6.08337C8.11051 6.00463 8.20255 5.94199 8.30411 5.89908C8.40567 5.85616 8.51474 5.83383 8.625 5.83337H21.3917C21.5019 5.83383 21.611 5.85616 21.7126 5.89908C21.8141 5.94199 21.9062 6.00463 21.9833 6.08337L27.4 11.5667C27.5458 11.7143 27.6313 11.911 27.6397 12.1183C27.6482 12.3255 27.5791 12.5285 27.4458 12.6875L15.3208 27.1209C15.2856 27.1628 15.2424 27.1973 15.1937 27.2225C15.1451 27.2477 15.092 27.263 15.0374 27.2677C14.9829 27.2723 14.9279 27.2661 14.8758 27.2495C14.8236 27.2329 14.7752 27.2062 14.7333 27.1709L14.6792 27.1209L2.57083 12.6875C2.43759 12.5285 2.36844 12.3255 2.37692 12.1183C2.38539 11.911 2.47088 11.7143 2.61666 11.5667Z" fill="#FFD491"/>
<path id="Vector_2" d="M15.0001 5.83337L9.16675 12.0834H20.8334L15.0001 5.83337Z" fill="#FFE7C1"/>
<path id="Vector_3" d="M9.16675 12.0834L15.0001 28.3334L20.8334 12.0834H9.16675Z" fill="#FFDBA3"/>
<path id="Vector_4" d="M20.8333 12.0834H28.6083L15 28.3334L20.8333 12.0834Z" fill="#FFA768"/>
<path id="Vector_5" d="M9.16675 12.0834H1.66675L15.0001 28.3334L9.16675 12.0834Z" fill="#FFA768"/>
</g>
</svg>
