<svg width="24" height="24" viewBox="0 0 24 24" fill="none" xmlns="http://www.w3.org/2000/svg">
    <circle cx="12" cy="12" r="12" fill="black" fill-opacity="0.1" />
    <path
        d="M16.9005 14.7982L19 11.6031H17.5152C17.3174 8.47667 14.8205 6 11.7636 6C8.57679 6 6 8.68619 6 12.001C6 15.3128 8.58329 18 11.7701 18C13.1992 18 14.5039 17.4564 15.5123 16.5603L14.7406 15.5272C13.9467 16.2494 12.9086 16.6926 11.7701 16.6926C9.27693 16.6926 7.25636 14.5906 7.25636 12.001C7.25636 9.40747 9.27787 7.30639 11.7701 7.30639C14.1334 7.30639 16.0639 9.19792 16.2579 11.6031H14.801L16.9005 14.7982H16.9005Z"
        fill="white" />
</svg>