<svg width="20" height="20" viewBox="0 0 20 20" fill="none" xmlns="http://www.w3.org/2000/svg">
<path id="Vector" d="M19.6348 17.8666L15.7573 13.9903C16.5873 12.8803 17.1417 11.5891 17.375 10.2229C17.6082 8.85672 17.5136 7.45467 17.099 6.1322C16.6843 4.80974 15.9615 3.60468 14.99 2.61628C14.0184 1.62788 12.826 0.884394 11.5109 0.447057C10.1958 0.00971977 8.79565 -0.108962 7.4257 0.100784C6.05576 0.310531 4.75523 0.842706 3.63121 1.65349C2.50719 2.46427 1.59184 3.53046 0.960527 4.76427C0.329215 5.99808 2.3615e-06 7.3642 0 8.75015C-2.06908e-06 10.3741 0.451903 11.966 1.30514 13.3477C2.15838 14.7295 3.37929 15.8465 4.83123 16.5738C6.28317 17.301 7.90885 17.6099 9.52634 17.4658C11.1438 17.3217 12.6893 16.7303 13.9898 15.7578L17.8648 19.6329C17.9807 19.7491 18.1185 19.8413 18.2701 19.9043C18.4217 19.9673 18.5843 19.9998 18.7484 20C18.9126 20.0002 19.0752 19.968 19.227 19.9053C19.3787 19.8427 19.5167 19.7507 19.6329 19.6347C19.7491 19.5188 19.8413 19.381 19.9043 19.2294C19.9673 19.0778 19.9998 18.9152 20 18.751C20.0002 18.5869 19.968 18.4242 19.9053 18.2725C19.8427 18.1207 19.7507 17.9828 19.6348 17.8666ZM8.74989 14.999C7.92178 15.0107 7.09961 14.8577 6.33114 14.5489C5.56268 14.2401 4.86325 13.7817 4.2735 13.2002C3.68376 12.6187 3.21546 11.9258 2.89582 11.1617C2.57619 10.3977 2.41158 9.57775 2.41158 8.74953C2.41158 7.92131 2.57619 7.10136 2.89582 6.33731C3.21546 5.57327 3.68376 4.88037 4.2735 4.29889C4.86325 3.71741 5.56268 3.25894 6.33114 2.95013C7.09961 2.64132 7.92178 2.48832 8.74989 2.50003C10.4075 2.50003 11.9972 3.15853 13.1693 4.33065C14.3413 5.50278 14.9998 7.09252 14.9998 8.75015C14.9998 10.4078 14.3413 11.9975 13.1693 13.1697C11.9972 14.3418 10.4075 15.0003 8.74989 15.0003V14.999Z" fill="#97B7EF"/>
</svg>
