<svg width="12" height="13" viewBox="0 0 12 13" fill="none" xmlns="http://www.w3.org/2000/svg">
    <path
        d="M9.33383 8.53899C8.72945 8.53899 8.18216 8.7953 7.78887 9.20778L4.37954 7.18228C4.47073 6.94617 4.52092 6.68884 4.52092 6.41967C4.52092 6.19305 4.48525 5.97487 4.41962 5.77064L7.62343 3.56927C7.98431 3.92317 8.47241 4.1407 9.00893 4.1407C10.1175 4.1407 11.0194 3.21202 11.0194 2.07051C11.0194 0.928829 10.1175 0 9.00893 0C7.90036 0 6.99847 0.928829 6.99847 2.07051C6.99847 2.29799 7.0344 2.51697 7.10052 2.72188L3.89766 4.92259C3.53662 4.56771 3.04781 4.34948 2.51046 4.34948C1.40189 4.34948 0.5 5.27816 0.5 6.41967C0.5 7.56118 1.40189 8.48986 2.51046 8.48986C3.00398 8.48986 3.45644 8.3057 3.80669 8.00075L7.27891 10.0636C7.20683 10.2856 7.16768 10.5229 7.16768 10.7695C7.16768 11.9994 8.13942 13 9.33385 13C10.5283 13 11.5 11.9994 11.5 10.7695C11.5 9.53958 10.5282 8.53899 9.33383 8.53899ZM9.00891 1.12917C9.51281 1.12917 9.92276 1.55145 9.92276 2.0705C9.92276 2.58937 9.51281 3.0115 9.00891 3.0115C8.50502 3.0115 8.09508 2.58937 8.09508 2.0705C8.09508 1.55145 8.50502 1.12917 9.00891 1.12917ZM2.51045 7.36066C2.00655 7.36066 1.59659 6.93854 1.59659 6.41967C1.59659 5.9008 2.00655 5.47867 2.51045 5.47867C3.01435 5.47867 3.4243 5.9008 3.4243 6.41967C3.4243 6.93854 3.01435 7.36066 2.51045 7.36066ZM9.33383 11.8847C8.73662 11.8847 8.25075 11.3844 8.25075 10.7695C8.25075 10.1545 8.73661 9.65423 9.33383 9.65423C9.93103 9.65423 10.4169 10.1545 10.4169 10.7695C10.4169 11.3844 9.93105 11.8847 9.33383 11.8847Z"
        fill="#97B7EF" />
</svg>