<svg width="72" height="28" viewBox="0 0 72 28" fill="none" xmlns="http://www.w3.org/2000/svg">
<g id="Group 1195">
<path id="Vector" d="M29.8828 20.5705C29.1449 20.5705 28.5106 20.3055 27.9799 19.7756C27.4491 19.2457 27.1837 18.6123 27.1837 17.8756V16.8093H29.7469V17.3134C29.7469 17.6753 29.7663 17.882 29.8052 17.9338C29.857 17.9726 30.064 17.9919 30.4265 17.9919H37.9025C38.2651 17.9919 38.4657 17.9726 38.5045 17.9338C38.5563 17.882 38.5822 17.6753 38.5822 17.3134V15.5491C38.5822 15.1871 38.5563 14.9868 38.5045 14.9481C38.4657 14.8963 38.2651 14.8705 37.9025 14.8705H29.8828C29.1449 14.8705 28.5106 14.6055 27.9799 14.0756C27.4491 13.5457 27.1837 12.9123 27.1837 12.1756V9.30623C27.1837 8.56949 27.4491 7.93615 27.9799 7.40623C28.5106 6.8763 29.1449 6.61133 29.8828 6.61133H38.4657C39.2035 6.61133 39.8379 6.8763 40.3686 7.40623C40.8993 7.93615 41.1648 8.56949 41.1648 9.30623V10.3726H38.5822V9.86847C38.5822 9.50656 38.5563 9.30623 38.5045 9.26745C38.4657 9.21574 38.2651 9.1899 37.9025 9.1899H30.4265C30.064 9.1899 29.857 9.21574 29.8052 9.26745C29.7663 9.30623 29.7469 9.50656 29.7469 9.86847V11.6328C29.7469 11.9947 29.7663 12.195 29.8052 12.2338C29.857 12.2726 30.064 12.2919 30.4265 12.2919H38.4657C39.2035 12.2919 39.8379 12.5634 40.3686 13.1062C40.8993 13.6362 41.1648 14.2695 41.1648 15.0062V17.8756C41.1648 18.6123 40.8993 19.2457 40.3686 19.7756C39.8379 20.3055 39.2035 20.5705 38.4657 20.5705H29.8828ZM48.2945 20.5705V9.1899H42.5856V6.61133H56.5667V9.1899H50.8771V20.5705H48.2945ZM58.019 20.5705V6.63072H69.2815C70.0324 6.63072 70.6732 6.89569 71.2039 7.42561C71.7346 7.95554 72 8.58888 72 9.32561V13.0868C72 13.8236 71.7346 14.4569 71.2039 14.9868C70.6732 15.5167 70.0324 15.7817 69.2815 15.7817L60.5822 15.8011V20.5705H58.019ZM61.2618 13.2032H68.7378C69.0873 13.2032 69.2879 13.1838 69.3398 13.145C69.3916 13.0933 69.4174 12.893 69.4174 12.544V9.86847C69.4174 9.50656 69.3916 9.30623 69.3398 9.26745C69.2879 9.21574 69.0873 9.1899 68.7378 9.1899H61.2618C60.8993 9.1899 60.6923 9.21574 60.6404 9.26745C60.6016 9.30623 60.5822 9.50656 60.5822 9.86847V12.544C60.5822 12.893 60.6016 13.0933 60.6404 13.145C60.6923 13.1838 60.8993 13.2032 61.2618 13.2032Z" fill="black"/>
<path id="Vector_2" d="M22.0408 0H11.0964L0 13.2245H10.9444L22.0408 0Z" fill="#25AAE1"/>
<path id="Vector_3" d="M21.3061 13.2246H10.7265L0 27.1838H10.5796L21.3061 13.2246Z" fill="black"/>
</g>
</svg>
