<svg width="14" height="21" viewBox="0 0 14 21" fill="none" xmlns="http://www.w3.org/2000/svg">
<path d="M7.38901 14.936L6.64206 14.5047L13.065 5.97709C13.2378 5.74784 13.3232 5.36128 13.2638 5.07786L12.4591 1.23759C12.4231 1.06577 12.3174 0.918141 12.1692 0.832543C12.0209 0.746944 11.8403 0.729277 11.6735 0.783998L7.94533 2.00718C7.6702 2.09749 7.37816 2.3648 7.26596 2.62893L3.09229 12.4552L2.34534 12.024C1.98572 11.8163 1.52761 11.9341 1.32417 12.2865L0.865053 13.0817C0.661613 13.4341 0.788683 13.8897 1.14831 14.0973L2.73514 15.0135L1.93359 16.4018C1.3374 16.4457 0.776468 16.7683 0.459989 17.3164C-0.0528684 18.2047 0.267443 19.3532 1.17402 19.8766C2.0806 20.4 3.23538 20.1032 3.74823 19.2149C4.06471 18.6667 4.06356 18.0197 3.80353 17.4814L4.60508 16.0931L6.19191 17.0092C6.55153 17.2169 7.00964 17.0991 7.21308 16.7467L7.6722 15.9515C7.87573 15.5992 7.74863 15.1436 7.38901 14.936Z" fill="#97B7EF"/>
</svg>
