<svg width="19" height="18" viewBox="0 0 19 18" fill="none" xmlns="http://www.w3.org/2000/svg">
    <path
        d="M10.2393 1.8C11.4232 1.80008 12.5878 2.10826 13.6244 2.69579C14.661 3.28333 15.5359 4.13106 16.1673 5.15988C16.7988 6.1887 17.1662 7.36509 17.2354 8.57927C17.3046 9.79344 17.0733 11.0058 16.563 12.1033C16.0527 13.2008 15.2801 14.1476 14.3173 14.8554C13.3544 15.5631 12.2328 16.0088 11.057 16.1508C9.88114 16.2928 8.68947 16.1264 7.59314 15.6673C6.49682 15.2082 5.53157 14.4712 4.78748 13.5252C4.63927 13.3465 4.42894 13.2343 4.20138 13.2127C3.97381 13.191 3.74702 13.2616 3.56939 13.4093C3.39175 13.5571 3.27735 13.7702 3.25057 14.0034C3.22379 14.2366 3.28677 14.4713 3.42606 14.6574C4.24655 15.702 5.28444 16.5445 6.46347 17.1229C7.6425 17.7013 8.9327 18.0011 10.2393 18C15.0778 18 19 13.9707 19 9C19 4.0293 15.0778 0 10.2393 0C5.74152 0 2.03486 3.483 1.5355 7.9659L1.48469 7.9137C1.31946 7.74976 1.09816 7.65904 0.86846 7.66109C0.638756 7.66314 0.419025 7.75779 0.256596 7.92466C0.0941639 8.09153 0.00202751 8.31726 3.24249e-05 8.55324C-0.00196457 8.78921 0.08634 9.01656 0.245922 9.1863L1.99807 10.9863C2.16232 11.1547 2.38492 11.2494 2.61701 11.2494C2.8491 11.2494 3.0717 11.1547 3.23596 10.9863L4.98898 9.1863C5.14856 9.01656 5.23686 8.78921 5.23487 8.55324C5.23287 8.31726 5.14074 8.09153 4.97831 7.92466C4.81588 7.75779 4.59614 7.66314 4.36644 7.66109C4.13674 7.65904 3.91544 7.74976 3.75021 7.9137L3.2526 8.424C3.39355 6.61985 4.19075 4.93642 5.48547 3.70891C6.7802 2.48139 8.47745 1.79985 10.2393 1.8ZM10.2393 3.6C10.0069 3.6 9.7841 3.69482 9.6198 3.8636C9.45551 4.03239 9.36321 4.2613 9.36321 4.5V8.5185L7.12484 10.0512C6.93153 10.1837 6.79736 10.3896 6.75185 10.6237C6.70634 10.8578 6.75322 11.1009 6.88217 11.2995C7.01112 11.4981 7.21159 11.6359 7.43947 11.6827C7.66734 11.7294 7.90397 11.6813 8.09728 11.5488L10.7255 9.7488C10.8454 9.66658 10.9438 9.55523 11.0118 9.4246C11.0798 9.29398 11.1154 9.14813 11.1154 9V4.5C11.1154 4.2613 11.0231 4.03239 10.8588 3.8636C10.6945 3.69482 10.4716 3.6 10.2393 3.6Z"
        fill="#97B7EF" />
</svg>