<svg width="18" height="16" viewBox="0 0 18 16" fill="none" xmlns="http://www.w3.org/2000/svg">
    <path
        d="M16.997 6.50035H1.00065C0.595235 6.50035 0.232001 6.25661 0.0773338 5.88397C-0.0773336 5.50898 0.00703034 5.08009 0.292931 4.79417L4.29319 0.793543C4.68455 0.402152 5.31728 0.402152 5.70629 0.793543C6.0953 1.18493 6.09764 1.81772 5.70629 2.20677L3.4144 4.49887H16.9993C17.5524 4.49887 18 4.94651 18 5.49961C18 6.05271 17.5501 6.50035 16.997 6.50035ZM13.7045 15.207L17.7047 11.2064C17.9906 10.9205 18.0773 10.4916 17.9203 10.1166C17.7657 9.74163 17.4001 9.50023 16.997 9.50023H1.00065C0.447598 9.50023 0 9.94787 0 10.501C0 11.0541 0.447598 11.5017 1.00065 11.5017H14.5856L12.2937 13.7938C11.9024 14.1852 11.9024 14.818 12.2937 15.207C12.4882 15.4016 12.7437 15.5 13.0014 15.5C13.2592 15.5 13.51 15.4016 13.7045 15.207Z"
        fill="#97B7EF" />
</svg>